<mxfile host="Electron" modified="2024-02-12T06:58:56.023Z" agent="Mozilla/5.0 (X11; Linux x86_64) AppleWebKit/537.36 (KHTML, like Gecko) draw.io/23.0.2 Chrome/120.0.6099.109 Electron/28.1.0 Safari/537.36" etag="12A0yRt1-MNSGlL_FbRV" version="23.0.2" type="device">
  <diagram name="Page-1" id="u2cc1zKp0di6WM167vmo">
    <mxGraphModel dx="1062" dy="707" grid="1" gridSize="10" guides="1" tooltips="1" connect="1" arrows="1" fold="1" page="1" pageScale="1" pageWidth="1169" pageHeight="827" math="0" shadow="0">
      <root>
        <mxCell id="0" />
        <mxCell id="1" parent="0" />
        <mxCell id="qFiI2E-4twq_T6ByQUi9-14" value="" style="rounded=1;whiteSpace=wrap;html=1;absoluteArcSize=1;arcSize=12;strokeColor=#808080;" vertex="1" parent="1">
          <mxGeometry x="80" y="155" width="290" height="55" as="geometry" />
        </mxCell>
        <mxCell id="iA33kIqaNiJtw1WzOAJD-29" value="" style="rounded=1;whiteSpace=wrap;html=1;absoluteArcSize=1;arcSize=12;strokeColor=#808080;" parent="1" vertex="1">
          <mxGeometry x="80" y="198" width="740" height="222" as="geometry" />
        </mxCell>
        <mxCell id="iA33kIqaNiJtw1WzOAJD-31" value="" style="rounded=0;whiteSpace=wrap;html=1;fillColor=#dae8fc;strokeColor=#6c8ebf;" parent="1" vertex="1">
          <mxGeometry x="150" y="221" width="310" height="189" as="geometry" />
        </mxCell>
        <mxCell id="qFiI2E-4twq_T6ByQUi9-15" value="" style="rounded=0;whiteSpace=wrap;html=1;strokeColor=none;" vertex="1" parent="1">
          <mxGeometry x="81" y="161" width="288" height="39" as="geometry" />
        </mxCell>
        <mxCell id="iA33kIqaNiJtw1WzOAJD-3" value="Prince of Persia" style="rounded=0;whiteSpace=wrap;html=1;fontSize=36;fontStyle=1;strokeColor=none;fillColor=none;align=left;" parent="1" vertex="1">
          <mxGeometry x="88.78" y="155" width="278" height="40" as="geometry" />
        </mxCell>
        <mxCell id="iA33kIqaNiJtw1WzOAJD-4" value="Save file format" style="rounded=0;whiteSpace=wrap;html=1;fontSize=22;strokeColor=none;fillColor=none;align=right;verticalAlign=bottom;spacingRight=5;" parent="1" vertex="1">
          <mxGeometry x="150" y="191" width="220" height="30" as="geometry" />
        </mxCell>
        <mxCell id="iA33kIqaNiJtw1WzOAJD-6" value="" style="shape=curlyBracket;whiteSpace=wrap;html=1;rounded=1;labelPosition=left;verticalLabelPosition=middle;align=right;verticalAlign=middle;" parent="1" vertex="1">
          <mxGeometry x="266" y="236" width="20" height="129" as="geometry" />
        </mxCell>
        <mxCell id="qFiI2E-4twq_T6ByQUi9-9" style="edgeStyle=orthogonalEdgeStyle;rounded=0;orthogonalLoop=1;jettySize=auto;html=1;entryX=0.382;entryY=0.997;entryDx=0;entryDy=0;entryPerimeter=0;fontColor=#4D4D4D;" edge="1" parent="1" source="iA33kIqaNiJtw1WzOAJD-7" target="qFiI2E-4twq_T6ByQUi9-6">
          <mxGeometry relative="1" as="geometry">
            <mxPoint x="720" y="390" as="targetPoint" />
            <Array as="points">
              <mxPoint x="470" y="256" />
              <mxPoint x="470" y="430" />
              <mxPoint x="612" y="430" />
            </Array>
          </mxGeometry>
        </mxCell>
        <mxCell id="iA33kIqaNiJtw1WzOAJD-7" value="Minutes Left (2 bytes)" style="rounded=0;whiteSpace=wrap;html=1;" parent="1" vertex="1">
          <mxGeometry x="286" y="246" width="164" height="20" as="geometry" />
        </mxCell>
        <mxCell id="iA33kIqaNiJtw1WzOAJD-8" value="Seconds Left (2 bytes)" style="rounded=0;whiteSpace=wrap;html=1;" parent="1" vertex="1">
          <mxGeometry x="286" y="276" width="164" height="20" as="geometry" />
        </mxCell>
        <mxCell id="qFiI2E-4twq_T6ByQUi9-10" style="edgeStyle=orthogonalEdgeStyle;rounded=0;orthogonalLoop=1;jettySize=auto;html=1;" edge="1" parent="1" source="iA33kIqaNiJtw1WzOAJD-9" target="qFiI2E-4twq_T6ByQUi9-12">
          <mxGeometry relative="1" as="geometry">
            <mxPoint x="500" y="440" as="targetPoint" />
            <Array as="points">
              <mxPoint x="455" y="316" />
              <mxPoint x="455" y="430" />
              <mxPoint x="320" y="430" />
            </Array>
          </mxGeometry>
        </mxCell>
        <mxCell id="iA33kIqaNiJtw1WzOAJD-9" value="Current Level (2 bytes)" style="rounded=0;whiteSpace=wrap;html=1;" parent="1" vertex="1">
          <mxGeometry x="286" y="306" width="164" height="20" as="geometry" />
        </mxCell>
        <mxCell id="9_6p93C9BbEcOYp4CWpk-27" value="biphelps.com 2024. v0.1" style="rounded=0;whiteSpace=wrap;html=1;fillColor=none;strokeColor=none;rotation=0;fontFamily=Courier New;spacing=0;fontColor=#4D4D4D;verticalAlign=bottom;align=right;" parent="1" vertex="1">
          <mxGeometry x="604" y="178.01999999999998" width="216" height="19.98" as="geometry" />
        </mxCell>
        <mxCell id="qFiI2E-4twq_T6ByQUi9-1" value="No. Health Bars (2 bytes)" style="rounded=0;whiteSpace=wrap;html=1;" vertex="1" parent="1">
          <mxGeometry x="286" y="335" width="164" height="20" as="geometry" />
        </mxCell>
        <mxCell id="qFiI2E-4twq_T6ByQUi9-3" value="All 16 bit unsigned int, little-endian" style="rounded=0;whiteSpace=wrap;html=1;fillColor=#fff2cc;strokeColor=#d6b656;" vertex="1" parent="1">
          <mxGeometry x="160" y="380" width="290" height="20" as="geometry" />
        </mxCell>
        <mxCell id="qFiI2E-4twq_T6ByQUi9-5" value="" style="shape=image;verticalLabelPosition=bottom;labelBackgroundColor=default;verticalAlign=top;aspect=fixed;imageAspect=0;image=data:image/png,iVBORw0KGgoAAAANSUhEUgAAADwAAAD2CAYAAACKj+SgAAAACXBIWXMAAA+wAAAPsAHpfpy9AAADTUlEQVR4nO2dsWoUURSG78qWNoIPkAW3SGEZiGUKAxb6CIKNXRZiKZhCIaVC8gCCrV1SCLFI6ULKLRNw3yAWKSyEtUl5f+XIHWfnP99X3h1m5uOHs4d778yMSiPOjsqq1blasDsro9r4nf99I32DsDsIu1OtZH+ir2p8frEdOn5na14dT5cwwu4g7M64rwtHq+7L6Vbo+MlsTi9dCsL+IOxO51VaVeNo1VV8XixDx6dLGGF3EHan8xmP6Y+96CWasLi+qY6nSxhhdxB2p1kvrXrmn/fr1VLx8N7dFrdTnn34yIxHKQj7g7A74Sqt9k6UUl+tO9nfDPXeqgduVb3TJYywOwi7E57xUKxWl6FqfPX1W3V8PL+ojk8Ojpvca7qEEXYHYXfCvfTl2adqNT59dRg6z9P3r6vjV9EbCpIuYYTdQdgd2Z+qaqx63ShqZkNV79FoSi/9LyDsDsLuyF76weNH1fFloyodnWdW/xrT3eeh6p0uYYTdQdid3p5qiaL+NaKkSxhhdxB2B2F3EHYHYXd666V/bbd59lDtLVHz2OkSRtgdhN2RVVrulGt04VYzGFHSJYywOwi7g7A7CLuDsDuDWT2MovaEpEsYYXcQdse2SqsZlXQJI+wOwu6E90uffjmvjrd6z0bXpEsYYXcQdmfwvbRa5VRPu6RLGGF3EHYnXKU3n+zUf2j0TGKU6F6RdAkj7A7C7oSrdNdPjndNuoQRdgdhd8L7pVvtc16+O6qOb7yZNTm/Il3CCLuDsDsIu4OwOwi709vqYdc9syJdwgi7g7A74Xc2R7/J0he8x+MWhN1B2B2E3UHYHYTdsd0vrUiXMMLuIOyOrNLqPRhDJ13CCLuDsDuD76X5otZfQNgdhN2RFW7oq4SKdAkj7A7C7gyml47OPyvSJYywOwi7M1Lzz319S0UR7ZkV6RJG2B2E3RmvWzVu1TMr0iWMsDsIuzPu+n0diugbR1uRLmGE3UHYHVkRW82E9FWNFekSRtgdhN2Rq4eqip7svxjE3g9FuoQRdgdhd8J7PKJfzlpc30Qv0SnpEkbYHYTd6Xwn3rp9DzFdwgi7g7A7cm74+9u9XmY2JgfHrB62BGF3EHZn7ap0lGhVT5cwwu4g7M5vnEiaB/7W53YAAAAASUVORK5CYII=;" vertex="1" parent="1">
          <mxGeometry x="88.78" y="200" width="51.22" height="210" as="geometry" />
        </mxCell>
        <mxCell id="qFiI2E-4twq_T6ByQUi9-6" value="" style="shape=image;verticalLabelPosition=bottom;labelBackgroundColor=default;verticalAlign=top;aspect=fixed;imageAspect=0;image=data:image/png,iVBORw0KGgoAAAANSUhEUgAAAUAAAADICAYAAACZBDirAAAiD2lDQ1BpY2MAAGiBrZpXVBVNs/d7ZucMm5w3mU3OOeecJQcJm5wzkpOCKCo5iihJBAUERFFAFMyIoIKKoKICBoyAosDHc56z1nsuzrn7atZ0/6emq7qm1q/vBgDhlIiAyHiYCYDIqIQ4RzNDmpu7Bw2zCAgAD4iACtT9AuJjJKNCU8D/aRtPAfTPPCPzT67/e93/aoRARnwAABB2T3cHxMQl7OnBvZuanBCzp+H7e37WgBC/wD39ak9Lx+0VCACC+I/f/19N+0cH/6uV/9Fxzo5Ge9ocABox+H9o//+hA0LiIgEQdt5bL/JvDf9lvPF7TZBhREQwZFwUZeLjgv0T4gJkQwMC/kfNfCAeOAIzYAhkAANE7F2MPeUCFPfGeBAHgoE/SNibA4AsCN0b/2fs/xdLYKQk/DMbRcekxoUGhyTQFOUVVKRpJntl05wSoqMYNIlkhn98aAJDkxaSkBCjKScXFRrFCGQExzEY8f6MiOhk2YDoSDktGiPSLzRCk/bPB8f/E6j/v62jy9KcQ0LjaRZGRrSYuOig0L1t9h4jQgMYUfGMQFpiVCAjjuZHM4pj+CWEJjFoRtGRkdFR8TSDhIS4UP/EhNDoKBmnEL84hkFEaDiDpiQrT9sXFRMdl7AXbP1vFprEP4XG71Ua8N9ZAv5NIhsdFyz331vFy/mnysT7ye0lkItgBPtFBEQHMuiy//TiH27/7c5/eIwPUlL8LxdENAQAtbC7+0MUAEwZANvHd3f/NO3ubp/e42EegNGo/8RHnwJAfX3Pf/w/PpFGACj5AAzc/I/PvwqAS4cA4HwWkBiX9K+P6b92AzBAAhRAAwzA7Z0jwt5JIgPK3ktmwAJYARtgB5yAC3ADHsAL+IEAoAFBIAxEgCgQAxKADiSB1B5LskAOyO9RpQSUgQpQA+pAA2gCLaADdIEe0N/jzwgYA5M9Es2BBbAE1sAG2AI74LBHpxNwBvuAK3AD7sADeAFv4AN8gd8emQEgEATtMRqyx2b4HruRIApEg9g9XuP3qE0CySAFpII0kA4yQCbIBjkgF+SBAnAQHAKFoAgUgyPgKCgBx8EJUArKQAWoBFWgGtSCOlAPGkAjOAWawGnQDFpAK2gD7aADnAOdoAtcAN2gB/SCPtAPBsAlcBlcAUPgKhgGI2AUXAdj4CYYBxPgFrgD7oJ74D6YBA/BFHgEZsBj8ATMgjnwDDwH8+AlWACvwGvwBrwF78B7sAJWwQfwCXwGX8BX8A38AD/BBtgEv8AW+AO2wQ7YhSAIhpAQCsJAWAgPESASRIYoEDNEhVghNogD4oS4IR6IDxKAaJAQJAyJQmKQBESHpCAZSBaShxQgJUgZUoXUIQ1IC9KGdCF9yAAygkwgU8gcsoSsIBvIDrKHHCFnaB/kCrlDHpAX5APth/ygAIgBBUMhUBgUAUVB0VAsFA8lQklQCnQASocyoSwoB8qDCqBDUBF0GDoClUDHoVKoHKqEqqAaqA5qgBqhJugM1AK1QWehc1AndB7qhnqhPmgAGoSuQFehYWgUGoNuQhPQbegudB+ahKagaegx9BSag55D89AC9Bpagt5By9Aq9BH6DH2BvkE/oHXoF7QF/YV2YADDMBLGwDiYAJNgCkyFWWF2mBPmhvlgAVgQFoZFYQlYEpaGZWEFWAlWgdVhTVgb1oUNYCPYBDaHLWFr2A52gJ1gF9gN9oC9YV/YDw6Eg+BQOByOhGPgODgRToZT4XQ4E86B8+CDcCFcDB+Fj8OlcAVcBdfC9XAj3AQ3w63wWfgcfB7uhi/C/fAgPARfg0fhMXgcvg3fhR/AD+Fp+Ak8Cz+HX8KL8Bv4LbwMf4A/wV/g7/A6vAlvwdvwLgJGoBBYBB5BQjAhWBBsCE4ED4IfQUMII8QQdIQ0QhahgFBGqCE0EToIPYQhwgRhjrBC2CIcEM4IF4Q7wgvhi/BHMBAhiHBEFCIWkYBIRhxAZCCyEbmIAkQhohhRgjiBKEdUI+oQJxFNiGZEG6ID0YXoRlxEDCAuI64iRhBjiHHEHcR9xEPENOIJYg7xArGIeIN4h1hBfESsIb4j1hG/EH8QO0gYiUJikQQkBUlFsiE5kbxIAaQQUhRJR0oj5ZBKSFWkBlIHqY80QpohLZE2SAekM9IV6Yn0QfojGcgQZAQyGhmPTEKmIjOQ2ch85CFkMbIEWYqsQNYg65GnkGeQbcgO5HlkD7IfOYi8ihxB3kBOIO8iJ5GPkE+Qc8h55CvkEnIZ+QG5hvyOXEf+Rm6jAAqJwqIIKAqKBcWO4kbxo4RQoig6SgalgFJGqaO0UfooI5QZygplh3JEuaA8UD4of1QQKhQViYpFJaJSURmoHFQ+qhB1BHUcVY6qRtWjTqGaUe2oTtQF1EXUJdQQagR1A3ULdQ/1EDWDmkW9QC2illDLqI+oL6ifqF+ov2iARqKxaCKaCc2K5kTzogXRomg6WgatgFZBa6B10YZoU7Ql2hbthHZFe6J90QHoEHQEOgadgE5FZ6Bz0AXow+gSdCm6Cl2HbkQ3o9vRnegedD/6MnoYPYaeQN9DP0Q/Rs+h59Gv0e/QH9Br6O/oTfQfDMAgMTgMCUPFsGN4MAIYEYwERgajgFHFaGL0MEYYc4wNxgHjgvHA+GICMCGYSEwsJgmThsnC5GOKMEcxpZgqTB3mFKYFcxZzHnMRcwlzFXMdM4G5i3mIeYx5hnmJeYNZxnzCfMOsY7Ywu1gkFoclYalYDiwvVhArhpXCymGVsRpYXawR1hxrg3XEumK9sH7YIGw4NgabiD2AzcLmY4uwJdgybDW2AXsa24btxPZgB7BD2FHsOPYu9iH2MfYZdhH7FruKXcP+wP7CbuMQOCyOhKPiOHB8OCGcOE4ap4BTw2njDHCmOGucA84F54nzwwXhwnGxuCRcGi4HdxBXjDuBq8TV4ZpwrbhzuB7cAO4q7jpuAncf9wg3i5vHvcEt4z7jvuN+4bbxMB6LJ+FZ8Fx4frwIno6XwyvjNfF6eBO8Jd4e74L3xPvhg/AR+Dh8Mj4Dn4cvxJfgy/E1+EZ8C74D340fwF/FX8ffwj/Az+Dn8Av4t/gP+C/4dfwfAkTAEIgEKoGTwE8QIUgS5AgqBC2CAcGMYENwIrgTfAmBhDBCDCGJkE7IJRQSSgjlhFrCKUIroZPQSxgkDBNuEu4SpghPCfOEN4RVwhfCOuEPESJiiCQiC5GLSCOKEaWJikR1oi7RhGhFdCC6Er2JgcQwYgwxiZhBzCMWEY8RK4n1xNPEduIFYj9xiDhGvE2cJD4hviC+Jq4Q14jrxD8kiIQlkUlsJB6SIEmCJEtSIWmRDEnmJDvSPpIXyZ8USoomJZHSSXmkItJxUiWpgdRM6iD1kC6RhknjpHukadIz0iLpPekT6QdpiwyRMWQymY3MQxYi08lyZFWyDtmYbEl2ILuRfclB5AhyPPkAOYdcSC4hV5DryWfIHeQe8iB5mDxOvk+eIT8nvyavkL+QN8jbFCSFQKFSuCg0ijhFlqJC0aYYUSwpDhQ3ii8liBJJSaCkUXIpRZTjlGpKI6WV0kXpowxRxih3KY8oc5RFynvKZ8o65S8TggnPRGXiYqIxiTPJMaky6TAZM1kzOTF5MPkzhTLFMKUwZTEdZCphqmBqYGpmOsd0kekK0xjTHaYppjmmRaZlpjWmDaZtZhQzkZmVmYdZmFmSWZFZg9mA2ZzZntmV2Zc5mDmKOYk5g7mA+ShzOXM9czPzOeaLzEPMY8x3maeZnzG/Zl5l/sr8iwqoWCqFykEVoIpTZamqVF2qKdWWuo/qTWVQI6mJ1AxqPvUItZxaT22mdlL7qFepN6n3qY+pL6hL1I/UH9Q/LAgWAgsLCw+LMIsUixKLFosxizWLM4sXSyBLBEsCSzpLPssRlnKWBpYWli6WfpZrLOMsD1iesiywvGdZY9lg2WXFsFJYOVhprBKs8qzqrAasFqwOrB6s/qxhrPGsaax5rEdYy1nrWVtYu1gHWIdZJ1gfss6yvmJdYf3G+psNYsOzUdl42ITZpNmU2XTYTNhs2VzZfNlC2GLYUtly2A6zlbHVsTWzdbL1sw2zTbA9ZJtje8W2yvadbYsdwU5kZ2XnYxdjl2NXY9dnt2B3ZPdgD2CPYE9kz2Q/yH6MvZq9ib2D/SL7EPtN9gfsT9kX2VfYv7FvcSA4iBysHHwcYhxyHOocBhyWHE4cXhwMjiiOZI5sjiKOUo56jhaO8xyXOEY57nBMc7zgeMvxmWOTE3DiOKmcPJwinLKcapz6nBacjpxenAzOKM5kzhzOw5xlnPWcrZwXOAc5xzjvcT7mXOBc5vzKucWF4CJysXMJcNG5FLm0uEy4bLncuPy4wrkSuDK5DnGd4Krlaubq4rrENcp1l2uG6yXXe66vXFvcCG4SNzs3jVuSW4lbh9uU257bgzuAO5I7mTuH+zB3OfdJ7jbuHu4h7nHuSe457jfcn7jXuXd5cDwsPHw84jzyPJo8xjy2PG48/jwRPIk8WTxFPGU8DTxtPD08QzzjPA95nvEs8Xzm2eSFeAm8bLwCvHReJV4dXjNeB15PXgZvDO8B3nzeEt5q3tO8nbwDvNd57/E+4V3kXeX9ybvDh+Wj8vHyifMp8GnxmfDZ83nwBfJF86Xy5fGV8FXznebr4rvEd53vPt9Tvtd8H/nW+QE/np+NX4Bfkl+ZX5ffgt+J34c/hD+eP4O/kL+Mv4G/nb+X/xr/Lf5p/nn+Zf7v/H8FMAJUAV4BcQFFAW0BMwFHAS+BYIE4gXSBQwKlAg0CbQK9AtcEbgtMC7wUWBH4IbBDw9JYaPw0Ok2ZpkezpDnTfGlhtERaNq2YVklronXSLtHGaA9oc7Ql2hrttyBSkCLILSgqKC+oJWgq6CDoJRgsGCeYKVgkWC7YKNgh2C84KnhfcFbwjeBnwV9CSCGKELeQqJC8kLaQmZCjkI9QqFCCUJZQsVClUJNQl9Cg0A2hh0LPhd4LfRP6K4wVZhEWEJYUVhE2ELYWdhMOEI4WPiB8UPiEcINwu3Cf8IjwPeGnwm+E14R/i6BEmER4RSRElET0RKxEXET8RaJEUkUKRE6I1Iu0i/SJjIjcE5kVWRJZE9kSRYtSRflF6aIqogaiNqLuogzRGNF00ULRctFTop2ig6I3RadE50WXRX+I7ooRxDjEhMXkxLTEzMScxHzFwsWSxfLFjovVi7WL9YmNit0XmxN7K/ZVbFscJ84mLiguI64hbiruKO4jHiaeJJ4nfky8TrxNvE98VPy++DPxd+LfxLcl8BLsEsISchJaEuYSzhL7JSIlUiUOSpRKnJQ4J3FJ4qbElMRLiVWJDTpMp9B56BJ0ZboB3YbuQQ+mx9Oz6UfoNfRWei99hH6fPkd/R/9G35EkSHJKikgqSOpKWkq6SgZKxkpmSB6WrJJsluyRvCZ5V3JW8q3kN8kdKbwUh5SIlIKUrpSVlJsUQypOKkvqiFSNVItUr9SI1H2pZ1LvpX5IQ9JkaR5pCWkVaUNpO2kv6VDpJOk86ePSJ6XPSQ9Kj0tPSy9Kf5beksHIsMoIysjJaMtYyLjIBMrEymTKFMvUyLTKXJS5LjMp80JmVWZDFinLLMsvKy2rIWsm6yzrJxstmy57WLZKtkW2V3ZU9oHsC9kV2Q05hByzHL+ctJymnJncPjl/uRi5TLliuRq5Nrk+uTG5KbmXch/lfsuj5VnlheTl5HXkreTd5YPlE+Rz5Y/Ln5TvlL8sf0v+ifyS/Df5XQWSAreChIKqgrGCo8J+hSiFdIXDCtUKrQp9CmMKUwoLCp8UthSxiuyKIoqKivqKtopeimGKqYqHFCsUzyj2KI4oPlCcV/yg+EsJrcSqJKykoKSnZKPkpRSmlKJ0UKlC6YxSj9Ko0qTSvNJHpd/KGGV2ZRFlJWUDZTtlH+UI5TTlIuVq5VblfuUbytPKr5S/KG+rEFW4VegqaiqmKs4qASpxKtkqx1QaVDpVhlTuqMypLKusqyJVWVQFVeVV9VRtVb1Uw1UPqBapVqm2qvar3lSdUX2t+lV1V42sxqcmraalZqHmphaslqRWoFaudkatV+262pTaotqa2rY6UZ1HXVJdQ91c3VU9SD1RPV+9TP20eo/6dfUp9UX1NfVtDaIGj4aUhqaGhYabRrBGssZBjQqNZo0+jRsa0xqvNb5pAk2KpoCmrKaOpo2ml2a4ZprmYc1azbOag5q3NWc1lzU3tNBabFqiWspaxlpOWgFacVq5Wie0mrS6tUa1prQWtb5o7WiTtfm1ZbR1tG20vbQjtNO1i7XrtM9pX9G+q/1c+4P2bx2cDpcOXUdDx1zHTSdEJ0WnUKdap03nks4tnVmdZZ1NXYwuh664rpquma6rbrBusu4h3SrdNt1Lurd0Z3WXdTf1MHoceuJ6anpmeq56wXopeoV61XrteoN6t/We6a3q/dbH6XPpS+pr6lvqe+iH66fpF+vX63fqX9V/oP9S/7P+jgHZgN9AzkDPwM5gv0GMQY7BCYPTBr0GNwxmDN4a/DREGbIZihmqGpoZuhqGGKYYFhnWGnYYDhneM5w3/Gy4bUQ2EjCSM9I3cjDyM4ozyjMqN2o26jeaMJo1Wjb6ZYwz5jaWMtYytjb2No4yzjI+btxk3Gs8Zjxj/NZ43QRtwmEiYaJhYmniaRJhkmFSYtJo0m1y3WTaZMnkpynKlMNUwlTD1NLU0zTCNMP0mOkp0x7TMdMZ07emG2YYM04zupmWmbWZt1mUWbbZCbPTZn1m42ZPzVbMfpvjzXnNZcz1zO3N/czjzfPNK83bzC+b3zWfN/9svmvBZCFkoWRhYuFiEWJxwKLYosHivMWoxbTFksW6JdqS01LSUsvSxtLXMtYy17LcstXykuUdyxeWny13rZishKyUrUyt3KxCrdKsjlo1WvVY3bB6YrVs9dsab81rLWutb+1oHWidZF1oXWvdaT1sPWX9xvqnDdqGy0bKRsfGzsbPJt6mwKbK5qzNVZtJm1c2322Rthy2dFstWxtbX9s423zbStuztkO2D2wXbb/bIe3Y7eh2Wna2dvvt4uwK7KrsOuyu2k3avbb7YY+257SXstext7f3t0+0P2Rfa99lP2I/bf/WftMB58DrIOdg4ODsEOyQ6nDEodGhx+Gmw6zDqsNfR4qjkKOyo5mjh2OkY7ZjqWOL46DjPccFx29OSCd2J7qTtpOdk79TolOhU53TeafrTo+dlp22nEnONGclZ1Nnd+cI5yznUucW50Hne84Lzt/3ofZx7pPap7vPYR9jX8q+4n0n9/XsG983t+/jvh0Xqouoi7qLlYuvS5xLgUuNS6fLiMuMy3uXLVeSK81V2dXM1dM1yjXXtcL1rOtV1ynXJddNN7wbv5uCm4mbm1uEW7ZbmVub2xW3Sbc3buvuOHc+d3l3Y3c393D3LPcy9zb3K+6T7m/cNzxwHnweCh4mHu4eER7ZHuUe7R5XPaY83nr88iR4CngqeZp5enpGe+Z5Vnme8xzxnPFc9vzjRfES9lLzsvLa75XgVehV79XtddNrzuuTN+TN5k331vF28GZ4H/Au8T7tPeB9z3vR+4cP1ofXR97H2MfdJ9In16fSp8NnxGfGZ9nnry+Tr6ivhq+tr79vsm+x7ynfPt87vi99v+9H7+fZL7ffeL/b/sj9ufsr95/bP7L/8f7V/dt+VD9xPy0/ez+G3wG/Er8zfoN+D/xe+234E/xp/ir+Fv4+/vH+hf4N/r3+t/xf+H8NQAVwB8gFGAe4B0QF5AVUB3QFjAXMBnwKhALZA6UC9QP3BYYFZgVWBHYEjgQ+DlwN3GGwMOgMXYYTI4SRwShjtDOuMaYZK4ztIGqQeJBOkGNQcFBGUGlQW9C1oOmglaDtYGqwRLBOsFNwSHBmcFnw2eDh4MfBq8G7IawhkiF6IftCwkKyQypDzoVcD3ka8ikUDuUIlQk1CnULjQrND60JvRA6Hvoi9GsYOow3TDHMPMw7LD6sKKwxrD/sbtirsI1wYrhQuHq4bXhg+IHw4+Gt4VfDp8NXwnciWCMkI/QjXCIiInIjqiPOR9yMeB7xNRIdyRupFGkR6RuZGFkc2RQ5GDkZ+TZyK4o5SjxKJ8opKiwqO6oyqivqRtSzqK/R6GjeaKVoi+j90UnRR6LPRF+Onop+H70dwxIjGaMf4xoTGZMfUxvTE3MrZiHmZywhVihWPdYuNig2PbYstiN2NHY2di0OGccTpxhnHucblxR3NK457krco7iVuN149njpeKN4j/jY+ML4xviB+Afxb+O3EpgTJBL0ElwSIhPyE+oSehPuJLxK2EwkJ4ol6iQ6J4Yn5ibWJHYn3kpcSNxIIiWJJGklOSaFJeUkVSddSLqVtJC0nkxMFknWSnZMDkvOSa5O7k6+lbyQvJFCShFN0U5xTglPyU2pTelJuZPyKuVXKiVVPFU31SU1KrUgtSG1L/V+6lLqnwMsByQPGB7wOBB7oOhA04HBA1MHVtJAGkeaXJpZmm9aUlpJWmvacNrTtLV0VDpfukq6TTojPSO9Ir0rfTx9Pv1nBjFDJEM7wzkjIiM/oz6jL+NBxruM7Uy2TJlMk0zvzMTMo5ktmcOZTzPXstBZ/FlqWXZZwVlZWVVZ3Vm3s15l/c5mzqZnG2R7ZMdlH84+kz2U/Tj7Uw4yhy9HJcc2JygnK6cqpzvnds7rnN+51FzJXKNcz9yE3CO5LbnDuU9zv+Rh8mh5GnkOeWF5eXl1eX15D/Le5e3kc+TL55vn++UfyC/L78y/mf8yf6OAUiBRYFDgURBXUFzQXHCt4GnBl4PYg4IHNQ86HYw4WHDw5MFLB6cOrh6CD/EcUj5kcyj4UPahmkO9h+4dentou5CjUL7QotC/MK2wovB84a3CV4VbRSxF0kWmRb5FKUUnis4V3SxaKNo8zHRY8rDRYe/DSYePHT57eOzw/OH1YkqxRLFhsWdxYnFJcXvxWPGL4vUj5CMSRwyPeB5JPHLsSPuRsSPzR9aPUo7Sjxoe9TqadPT40bNHbxx9eXSzhLlEqsS4xKckpaS0pLNkouRVydYxlmMyx8yO+R1LO1Zx7MKxO8eWjm0f5ziucNzqOON41vHa433HJ4+vnIBP8J5QPWF/IvxEwYnGE5dPzJxYK8WWCpVql7qWxpYWl7aWjpY+L/1ZRimjlxmX+ZSllJWVdZXdLntT9reco1yh3Lo8qDynvK58oHyq/GMFqoJWoVWxryKm4nBFS8VoxfOK9UpKpWSlSaVv5YHKisruyruV76pAFU+VSpV9VXjVwaqmqqGqp1XfqonV4tWG1d7VydWl1V3Vt6uXqndquGqUa+xqwmoKak7VDNU8rflWS6wVrzWs9alNrS2vvVB7t/ZdHajjrVOrc6yLrCusa64bqXtet17PXC9db1YfUJ9ZX1PfXz9V/7EB0yDUoNPg3pDQcLzhXMNEw5uG7ZNcJ5VP2p8MP3no5OmTwyefn1xvZG6UbjRvDGjMaqxrHGicblw7hTslesrglNeplFPlp7pP3Tu13IRoEmjSbHJpimsqaepommh63bR9muu0ymmH05Gni063nL5++uXp32fYziicsTkTeqbgTNOZa2eenVlvZm6WabZoZjTnNJ9svtL8tPl7C7lFssWsJaAlq6WuZbDlccvXVmIrvdWk1a81s7W2daB1pvVLG6FNos24bX9bRltN20DbdNuXdkK7RLtxu197Rntt+0D7TPuXs8Sz9LMmZ/3PZp6tOzt49vHZbx3kDskOs47AjuyOho4rHbMdP84xnZM5Z3ku+FzeuVPnrp17fm6zk7VTvtOmM6zzUGdz5/XOhc4/XZxdKl2OXdFdR7rOdk10LZ0H5/nOa553PZ9wvvT8hfP3z69eQF8QvqB/wedC2oXqC/0XZi587SZ1S3abdzO6c7sbu691P+/e7GHrUeyx74nsOdzT3jPes9QLevl7tXrde5N6y3t7eh/2frqIvyh+0eSi/8XsiycvDl18dnGjj7VPsc+uL7KvuK+9b6LvbT/cL9Cv0+/Zn9pf2d/XP93/dYA8ID1gMRA8UDBwZuD6wOLA9iWeSxqXXC8lXiq71HPp4aXPg4RB+qDZIGMwb7BpcGTw5eCfy1yX1S+7XE64XHq5+/Lk5c9XCFfoV8yuBF3Jv3L6yuiVxSvbQzxDmkNuQ0lDFUMXhx4Nfb1Kvipz1epq2NXCq61Xx68uXYOv0a7pXfO+ln6t7trla3PXNobZhpWGHYdjh48Nnx9+MPxxBD9CHzEbCRopGGkeGRt5PQpGBUZ1R71G00ZrRy+Pzo1uXme7rnzd6Xrc9RPXu68/vL42RhqTHrMaCxsrGmsfuzX2/gbqhsgNoxv+N3JunLoxemPxxs5NvpvaNz1vpt2svXn55tzNzXGOcdXxfeOJ4+XjF8enx79PME/IT9hPRE8cmzg/8WDi8y3iLelbVrfCbx2+1XHrzq3V29jbErfNbgffPni79fb47Xd3UHdE7hjfCbyTd+fMnRt33tyF7wrdNbjrdzfnbtPd0buv7oF7tHv693zvZd1rvDdyb/He7n2B+3r3fe5n3j95f/j+wv2dB/wPdB/4PMh8cPLB8IOFBzuTApN6k76TWZONkyOTi5O7D2kP9R/uf5j98NTD6w9fT0FTglOGU/5TuVOnp25MLT1CPBJ5ZPyI8ajgUcujiUfvpzHT4tNm0yHThdNnp+9Mf5jBz0jNWM9EzByd6ZqZnFl7THks/9j+cezj0se9j2ce/3zC+kTlicuT5CdVTwafPHuy9ZT7qdZTr6cZT08+HXm6OAtmBWcNZwNm82dbZidml+ewc/Q5y7nwuSNzXXOTc1+eMT1TeOb4LP5Z+bP+Z0+f/XrO9Vzzuefz9Ocnn488f/UCeiH0wvgF48XBF+0v7rz4ME+Yl5m3nY+ePzHfO/94fv0l+0v1l+4v017Wvxx+ubgALQgtGC8wFg4ttC/cXfi0SFqUW7RfjFssX+xfnF38/Yr7lfYrn1dZr5pe3Xj17jX6tcRry9cRr4++vvD60esfb9jeqL1xf3PgTf2b4TevluAlkSXTpZClw0udS5NLX99S3yq/dXmb8rb27dW3C++gd8LvTN4Fvyt6d+7dg3df31PfK793eZ/6vu79tfeLy/CyyLLpcuhy8XLX8tTy9xXWFbUV95W0lZMroytLq6hViVXL1cjVY6u9q49XNz9wfdD+4PMh50Pzh4kPqx8JH2U/OnyM/1j58fLH+Y87nwQ/GX8K+lT0qfPTw0/fP7N+Vvvs8Tnj86nPNz6/W8OuSa3ZrsWula9dWnu+tv2F9sXoS9CXoi+dXx5++f6V7av6V8+vmV+bvo5/XflG+Cb7zeFbwrfqb0PfFr5D30W+m38P/17yvef7k++/fvD80Pvh/6Pgx9kf9398/cnyU/Wnx8+Mn00/b/5cWSesy607riet16xfW3+1gdwQ37DaiN4o3RjYeLaxvSm4abwZsnlks3tzZnPzF88v3V/+vw7+6vg1+evbb7bfGr+9f+f8bvl95/enLaYt5S23rfStU1s3t1b+EP/I/3H+k/Kn/s/on7d/sX+l/9r/Tfxb8/fa39fbqG36ts123Hbl9pXthR14R3zHaid6p3xncGd+F+yK7lrsRu6W7g7svtjd/fe/kj1D/DOcmQXAOR0A6wcA1NQCIBYMAMXr/wGtop1jonR1bAAAAAlwSFlzAAAPsAAAD7AB6X6cvQAAIABJREFUeF7tXT/IXcdyvxK3SOFCBglssMEPrMKFQYEYniAuXOiBCqWTwIUCaV7xIA9cOpAUCTiQFIEXcJEUgbh4IHVx8YFduHDAD/wgAhevsCCGJ7BAArtwkcKg3DnXczV3vv0zszu7e849c+H6s+7Z3Zn57Z7fmd2ds3Ph/Q8+fLYZ9Pno3tnm7p2bg6RvNi7f8ffxt+777+Iw9nHBjoAj4AgMRmD7+z98PVQFl+/4jxyAPv7WPf4u3L59+9nuO43B+/fvT1/6uXfv3vTPO3fuHP3+7NmzQ3ms/+8ff7F5/1d/OZX79LMvNmeffb55+uSHzaMHH48c4y7bEXAEIgi8cu3W5vvvv5uuXrr04hCcRsrfAnkBuSGJcQTgd06KtAzWh99264lDAHShjoAjUIYAkM/rV1/dXHnppbIGlLX+8NXDI8LtJf/J48cHTR9+/ccD4W/Rs8sRHdaGcliWeozXbryrhMKLOwKOwGgEkPz+7I2rzVXB5Qb0NCn5tZKPMoHggXzR0wXZ8D3aBIl5gVAJrsF0GD2+lFfYHEkX4Ag4AiYIADG0Ip+Qgm+8+frm8pUXDpd6yaceIAgH4ofPgQBT5IcECN4i9RhNesAbcQQcgdkh8PCP30464V8LBZFoe023QWdK7pR4YW/iiAC5gejx4TSXb4IgKVoA4204Ao7AfBAA0nv91ZcnhfCvlXY9vU2qM5AufIEEKRGeiwOUTnVzHqMVYN6OI+AI9EXAmvT6an9eGpAu9T7R+wt6gLjGp53qXr3042Z0TNVooF2+I+AIzBeBkPd5sXaqSz3G+ZrumjkCjoAjsEcANmLwMxEgeHuxXd3cVJd6jKPm996xjoAj4AikEIht5lzUTnVjHqPHAfoAdAQcgTkiQDd1uH4eBzjHHnOdHAFHwAwB2NRBD5DPUj0O0Axmb8gRcATmikBsZzt6HFbt5shcgXC9TgeBtS+7rN1+zUiOrgHyRjwOUAOrlx2JwINPfztS/HDZ1vZbvvUxHBymgNgD9DjAuXWd6xNDYO0ekLX9LQOgpeQqLWd1V3gcoBWS3o4jsHAEWpFPaheWQ0ZJuJU+VKbHAS580Lr6joAVAnS31KpNaKekXSRNSoItCNHjAC172ttqggBO9fhfFAa/4xd+y5VvomTDRnP2WNrfahqsbTd0GIO2DUmXXNgVmrLCaY6+pydI4xsk0Ak333l7c+Od65NcPxJfAr+XsUQAxqD1xoClfq3bKrEf6vQ6kw/th1QZeCpzzwNZQT6cVwBnA6L8LSqVOxGaHn0PdXLlW3e2t+8IOAL1COxPRnm8+X19U+IW6JH0veVT8oOTqQ8EyLWPHX1PyzkJivvcCzoCs0UACAm+0qRImMQoZlCuHX4dSPDpk/1x9dJPTSIlKv8cASLxgSI1yZKkhng5R8ARGIeAJCkReE30DD3Qlub14IQGB45Cefhrcfozly/RWYpokADp6c9SLw/PA8Q1QKkCXs4R4AiUrGWdEoo97Zeswe2nx3sSBPJBwoNjpWiuDZp4iJ66DLVrTori8iU6S8fDlBYzlOWNNpAiQeoxQl5g/zgCjsByEJBsgAB5AQnFpqnUy6Nn7dUSH6LI5Ut0lvaAxwFKkfJyjoAjMCEAJIdEFyIjPIJe4/WF4v1q4v5Sdek1jwP0QT0cgVR8HyinjXPLtTfcYKZATt852s9JTkt6nKBojB8GTtfE/aWCr2m7Hgc4t7vB9Yki0HNtbI7d0ML+G3ffE63PQfwcJBaHNcDrb78lqmOJYSv5fh6gZS95W46AI2COQM1UOKeMnweYQ8ivOwKOwFAEaqbCOcU9DjCHkF93BByBk0UgmBgd4gC1yZI8L/DJjhE3zBE4WQT8PMCT7Vo3zBFwBHIIeBxgDiG/7gg4AieLgMcBnmzXLsew2NHupef/LcfyvaZrt39kfx1tgkhfeUsdkjDSGJe9TARiZ/jh77G/SBz8+tJQWLv9I/vL4wBHou+yHYGVINAylo9CqJXjcYArGYBupiMwEoGSvCAl+mrlBMNg4Hh8PAEaj7znysB1/zgCjoAjIEWgZUAz6kAz0KE3mPIKPQ5Q2ntebnYIrDn/B3TG2u0PDUh+qAKUSRGvxwHO7rZ2hRyBfgjAgaZw0EDqg4mE8Bh6SR1LC1rKnw5ErTn6niZLev+DDy3t9rYcAUegMQKSpEQ8kZCkjqXaLeVv6StvsfU+akzsBOlYLJMlEN6WI+AI2CMgSYpkkcioVPNQAqSSREoh+R4HWNorXs8ROAEELBMM1cIRSr7UWj/PC1zba17fEVgwApYJhmphoMmPoC1Kfprj9TV6eBygBi0v6wicGAKWCYZS0EhCUoDkeBrN1vp5HOCJDWg3xxGYIwIYihIKSdG+vcHtCyVUCmEQkrOFnAD0A5scmN4Srt2+dX0DmyO8HNSBcqHfaXv77FG3No8efDzHflmFTrk+WgUIbuRsEagJkMbAZ/ybait0bXvp/x4d5QX+/k9eOQcUJcUUihCvQ2OKrHZqZttzM1fMiW/mHTRD9eibFL3UK5VJ65WS6BQIDZ6c5StvkD0Kvv4ZgwAQX4j8njx9OimEf2u0K2nD5c8b/1IiqhlHUFf7/i7KKyU9qu8Wp7upo7CwDK0YIswQ6fnUt3Z4yOvnPL4rly9PjeFfecvnS5a04fLnjb8FoZSMqVHEC7qeiwMMkV3IKFouRHwYvFgCiNfRIZAjPl1rXnqtCIwiolHEe0SAKQ8wNiBSxIeR4z+sdTR1sNuJrwPIKxIxkohGwXwUBqOZ6nLyA48PvkB88L185YXJpleu3Rpl28nKja3xocEl63OWYLn8/VrfqM9o/EfZXSJ3mgKnAJNOddHjQ+KDduH/9y9O+8cCAanHp12fg/7X1knZo23L5Y/F32JsLrWNiQBzA1Yy1aXEt1Qw5qq3lPhK9c/1f2m70nouf7854p/+CBw2QaS7uvxkhhDxgdfnhFjfmZbEZ+1laa1z+bZe3tLw1+rbq/yBAGumulxZnPo6CZZ1oxXxIemMIh+Xvye9teJfNvr71joKg7Gc6jr56TsyRXwlN5Fl3J3L13twp4S/fjTPowZ/VY5rNRGgJfHNw+xlaSHx+HydbOw62Vrw54QxKjaw5g5O2cDt2YbCWUJT2hqFvG4cgZFpBD66d7a5e+fmsO5x+ePx3x9W8vyDr6XR01tCXtSciZGfPBNKlIQWH+IAeRwfFODHYA+7U1ywI+AINEEglOCIB0SHjrJqETSNyY/A0F4JmLaxXV3Jq2y+21s/JnMZueolpFtw+emMaKeOf+8ERyk8afIjdMBa63dh96bGMxDGNy0gUUoouJkbkCNBuO4HIpTfRto3aeiDi/cf5pF94bU/3/zwzX9vJH9DswDL/gT7QklvyhHT13T5302gjZrxjcR/m9utlVzPkaB+SHoNRADw58eE556i+PZNrO+k5AflLjV+lbF10huOFax50xuut3ye+GeUfHxtda3ycVwchcGEbqwcueWuO5XVIaDNiYCJZVJSJZ4fkmSd9vnaPZPy4HQfPR168790+cW8smYlHk+viPZI+sNVpuNjTvJH4X8x511IPECzcSFs6NkHxwXh3/w3YVOzL6bNhiUpr/EAWwOkJfhafWDXk45pkN/z5gNZ9J7rbT9PPDQH+SPxvwgueepTephBaT3pAEfCw78X/kZac9nlahPIgPVz8gBjvSHJIqbtSXw45B762na9/HIRqPYAY6bnPMcayCjZwf+vifwswg/m5AGGxoFFrofY+JJ4yDVj0+suC4FmHmBrGJD0ek99cbrdWy7gaUF+S/AArexsPQa9/eUj0MwDBGh6hcD0JCPqbdJpeE8dJMMutQRR6gFisLxEvpdxBJaAQDMPsPUaIIBLSWcUAc1Bh9BASy1BaNcAkfiAOOHrH0fgVBA4OhIfjaLkpV3L2+cC3m/xwxdutqaf95u2Hmx8aWuO/GGk8QChD5H4oC+b92f/7lyFRIvNsxqgRsuP6R6MAwTSw2BRaZwf3mQ8qlvySl0JsNzjWxopldicqxN7QT30EENPTvIXSc8TXeV6YJ7XRx9cMFp+qleCHiCtkPMAucdHkyJB3Rav1xyR3z/2H3Sx6fZoEo5tHoSWI5DUJH+xT/sj7RItEChNPG4hG9oYLb+KAGNreTniQ6E5ArUCedQaoJX+Fu3Ephm8DzRrgC0eYBa2ehs6BEbvrI+WH0Mr6wHyilLi03VPfekh3teA9ccUUtJBplkDrO8Zb2EOCIxegxstX7UGGCI9/I2fNtLLw0sNoiHkBwp1mH63WD/ReIA9b94WtvbUf86ypA/HVjaMlh/1AFOvBVGy4zFgI6dGB8Ib7YF1kF86cFrEAba6ObDdUlsles3VA+G6j9ZztHxJX1qWmeIAOQnSm4efFD2S+GKG917/C3mcI7zQ1GC1jAO0HHCptlrdfEvyLOlDoBUe0mWUEfJ7jTWUM70JQg9E4J4D39Wdw5S3N0hJeR28wJh8qccEh9vCFz9zXQNstVvYqt2W45Dm4UA5PQlptPyW2NK2t0h+sTi+FOHxa9KYQVPjgIA6rMWZ6qxoDM6w07zAT4+4R9Lj8XtzXQMEWKSkroBwKtqqXa0e0vK98nDkHq6phEJSW+ZcbltCfGgQJbwh5PeTIiOmn7RTW8vX5u3gxIcPqkc/Ka3xAFufCD0l5dnppSH52hsKZNKkO9BerzPpHj/9bppxHSX96Wg/Jh6ak/yR+EeTIkkGGfUAe02Nb9++vYHv7j8HFe/du7+5f//+9G/8K9G/pExv+V98/qUqmByPOgfbYn0yJw+wddKbUB/TBwTKLxkLJXVo4h/wzHvbP1f5JViW1OH2byWJj2KCRnh9lOCAjODfvciPE2wP+XhkvLSzQwfc8n6akwcIduEaZc0GmyaxDpezj219KIX4XDmNbKhsJT/3mmkMTyv5FAgNBtbyNbI5/tmkSKlREfMwWhMjJb3iUVtRsad87ZHlMJ3kJFjzJkgFTKKq2qQ8PKkQCNG2IVIsUGhusunNTD1/VB36He9Fy1OwRyZ2spadTYqUGiwxoqPAlw62XL3DVHRXsCchoV4t5V+78e4GU1hq18ag/FkmzcGcPEBtUiRM6kPXrrVt5MZW7PrcZKMnBXlO6EMPyA6y38GHP/y04ymEBcWhd2Ila9nnDkTVnOOX8wA1bZUOyjXVswqDmNMaoNbD5Ul9oP+1bZSOmbnJ5nYADujpASnivxEfC/IDmSMTK1nLPncgKnpvkkESIzgkxl4bIxJdl16mJJg31j8aD3DpuEn1pw8Xi4RMqYdV6FqJfCA5+MYeAkAW+KU4WMlPYdvDfgv5wSPxpcQlLScdhGstB1Ne+OBfxIH+uySYlz/MsL05eYCj+pzfoDzereSBQ21J9VcoJrFUPic5+u8YCVnKj/VfL/tr5WePxE8NUJ/i2ty+uN4X+4tSSoJ56UMK2y/1AE8pJ0gOy9x1Sc/XtFFTt2a8WNS1aKOX/dnjsFIkJ/EAW5HkiI0POuhHy5fcgLEyWg9w7TlBrNZeS/vM5X9bCl22XnYXOEVyqXAX/oZJVhMv0A0BlQe4ywOCx+bj6dFrS4xk4Y3UdK7Lf7kGvmTdLAFqJTvxaREbU16SCwQ0Q7KE//ecIGP6yqW2QyA7BZaKjp0ULa3v5eoQ0E6TJLlAQCMo5zlB6vrGa88XgXMeoPYtDslhCj80tL/1u7851XvKT+1MaqZJmjXAmtfTctj5dUdgNALnPEDJxgYoje/f8QNToX6vQxJ6vgMc6qje8lMkp/EAVWuAo0eoy3cEGiKwDR2Imtv4QH0kJ49odP/kN+HSv/i1ppXllaWvvlHteVxgzLKQZ5jy5DUe4PLQdI0dATkCwTdBQtXpGh9c5ydF0zoloS8h8vvsy59v4BsjRpDZcwqa8gLlkJ8vifF5/Ersd14u5BmmHmLuAdb0ltc9JQTOeYDcOMkaHyc/6TQ6BiSQHnx+efWt6e/Pfv27U8J8uC1r9ABr3+yQdlovOZrZgFR3i3JLsz/6JkhsV5ev8XHQLMgPiA/J7/5X31j0y6rbWEpOkJadVPIqYYk+veTEdHP5L2806+HnNkFKia9ksITqIPHhtdtvvrb5r/f+yqr5xbWDx+HnOhWv85wgQH48jOUUPUCwG7/Qyfzf8Jtmp7x0oFAPyOJQBa0eLv/bQz9L8D+EwWinutqOoeW//uQ/p3++fuP6UTMPP/1i89XZZ9Nvb774wuHaX/zLf9SIW3RdzJmBN3XKGMz3sKScIBadg2ff4bl4+zPjnn/oQ8HqSKiY3qEkQj2IF/Vx+c/fGgklluL9VpUUSTt4gfg46dE24Bp8v/mH32y++u6HIxLUyjqV8kBmmk0lyc78nDxAbVIkJHno39iR8Hg4KB4MSpdlkBxLiDAkW6t/6bgcKZvrPDKxkrXsqqRI0s7MER+2A8SHH/AAf/Z3/yoVcbLlLHKCcHA0u8Cts8JpkwLRpDZgF0zvkfTBE6QPAJrng4cFaTPtgayQbK3+pQN1pGyu88jEStayq5Ii5ToTBsdn/3Q76fXl2lj7de1px6GcIBzDOXmAoJs2KVLo7RTqDcY8w9LkRzTpTkh2abvSsZ1K+tNaNvW0qe3WiY1CWMTstpRdlRSJKh0KvIWpR2rKC2t+9GN+MoN0hM24nHaqxnOChPplTh5gr4RG0i62TrojlYseJl/u6InPnJI+9bLbjHNC4S+5tSskR06EmkHjZdMIhBJUzckD7JXQSDpOrJPuSOVCuZFJl0bLH4V78Eh8TaelykpjAnHzw0qut3OMAO8HjQfYGkvtFL9UH0lIBLRtnXRHo+/IpEsh2+G3Xv0zCveqI/Gxc1Oensa7e+1vT/ylX83d0LDsnDzAhmYeNZ0KicjFWOZ0DCU0CtWJyXH5dSc+1+AffRVOeixWrtztfz7b3N+NBroWiKSYWh+EAfS/f//Xm19+bTZLz43jRVyvedXolWu3JhsfPfh4OudP4gnSXWBclL5x9z0VVrA7CzLn+qmJ08P+wL+ptmLXXH75ic+1+G9pQmU6QKXT11Q5zFH6q4/+Z7PZfT+8+6eTiO3vvtyLYoHQc71B5qSX9GbJPZgk5IeHpiLxXX97/242/Tx5+nRz5fLlIEQYoKzBr4bgNXJo2VKZtJ60X2KeYUl9l//8rY8S/KAvoidC5zYwUoONJmim5YD4DuS3uwCeIH6x3I8/P77J/u3qj0FRcONpP1inpG7oxh8pPzdtkjzAJMfiA/kB8YXID+wPkR8Q31LID2wofX+29Kbj48bl697fRfws8I/OLyU3EO9I9PikxDB5hvih/7/ZbmLEh8VjXkeSmH/yVErqnrM14vX0kF/qsaBuOBXO9RMm3c6Vw+sh0tNMfS0GtFRXWq4WzxKZLv85Aoh/SXB6LfYmOUFiHh9XTrOeR8vmyLAWhKXVb00UQHyc/FJec8jjK8khnPNqW/VTazxzerv88jXAHLa561UEKCU+qgQQG5IbEFuK3JwEc90nuy5dzuDER5cMpFNdniJBpuG+1Ggi0OjqZU8DgaIt1txUN7UwjrBJvUFpOdodEvktu2+0fGpbbjMEysamukh6nPxCU13+2hIGYMN0WzMNbtkv3rYjwBEQZ4WDG0m6JqRdY7MmjLXLp50cehMEr0v7E8tLiQ/Lo2y/7RyBuSJwLg4wdMPsp7rtTNASlrUmpy6fb2i1Jj7r/vH2HIFWCATjAPGGyU11NUpZe3ka2VB26fJ5wKfGflwD7EV8kmm3Rn8v6wi0QiD4JogV8SHpjCKfU5KPsWKajYIU8WkDmENrfLFBmZp2txrI3q4jUILA0bvAqV3dkuDh2CJ6iaJrlU9joyTkB+Uxr0sonAWxL93VzSXFout/Jf18anWkhzC0stvl798zjoVYTR6g5HPq62Q5DEbZD68qnu2+mk+vqa5GJ2lZPtUfHaQs1ZuWS9nQwx6Xv39FLrRsxPHfag/cLBkQsTof3Tvb3L1z07JJVVuLkP/GVZVNmsJgP/+ETlMueStIowcty6f60oFcKq9FPX7yTChRUQu52KbL3wdWh04A4rOoqkDolp3obfdFIBTAHDr+3VqrKanQbtrOSTD07x5EEky6w/SzxgDbiyY+WoH8UbhvR7x/RweQyz+++VvdXLF2Y5sbsbwatB2L3d5eSYWkuFon3ZHKhXKjEx+NlD8K9wu7SP1nqaQrmg4sLevyv5ug6+FxxfqIT3MxoTqUT02BcyQI12veBJEe3IB2UeJGPFH/B5/+diomPQsRyoX6pMae0nvkVOtB/468/6e0mNrUizWdgYlXMH2hy++LP/Zd7BxI3re59b/WIS/QvnSjDr0oDP+J6S49CxHKtU4LWnMvnULd3vc/pk5Fh2PbOykNJj8BBajxvTZj1i7/sN7005QrdxNJPLwcSeZkpK5rc1LQ/o21q/EAa3T3unkEevIPLrehVw/8MyVF6kU+AMeo5CfYFWuXz3HIeVc5cstdz98C6RLasSkpr/EAa/X3+mkEevMPhIjRMeu7wCsfobmpsPQoLQ5jab1cd1icGegeYA7l8ddbBHDjw5E+9J0Ax/d1Uw1yhFHrAcaUb+EZWgURuwfYdMhVN26V6ySkCJ8hOAFWd5d9AznS0kjM5Zto5QFqdJSWlbwKKGnLPUAJSuPKWPWzxAInQAlKnctYD4BUe608QICsNgSmBvbUFLzUAyw55r/GBq/bHoGiE6Hbq+USLBFITR0lHmDJdLbVGqAUl5TOWg8Q49Qwi55UBy83fwS6eYCW07oSWNcsX+tRUvLSkh+eRIPeEuYWLukzqzqcjDUeINgB5bHOHOyxwsXb2eUo7wGC1eJ1qa5rl6/FDUgPvZ5cHCC2jSTDo/olr9Rp9YuVj/VziMQlOZFBDhIf/D/Gj/1gpbC3MxyBLh5gbiG+NQprl1+Db84D5B4fkAR88dzAnq/3xTzd0HQcPTnJX7SpBkevO08EuniAYLp2GmYN19rll+IZ8wBjHh8nTPj3o1LhynpSD1CzBtiTwJXmenEDBLp4gKDnmtfg5mC/wViZmsh5fFZyStqRPuQ0a4AleqylzrUb7y7eVPcAO3Wh9ObspI5KDJ1C8tNWclNklaBA4RbrtxoPsFb/U66Pp+tY2diir3O6nfMA3VPb5xA41Q/v31QcICU7HgPXa2pY+uBoEQd4qmOi1C5rD7C0ryX6x3jtHAFSJUaQ4drlSzqzpgwfZBAHyEmQe3x4dNncNgNS49MyDrAGb68rR6AV36Q8y+gaIE0ogia0UjAE0drly4eNrmTIA6TB0Nxz4ru6rae8GmukHgMc7gpf/PgaoAblfmVbRWuk2o0SoCShSEto1i6/FbYhDxBklWxucDJs8faHNmUCLY/Exz1XXwPUjS6c6vK/2Ar8jl/4LVc+JV36UNNZEI9C2U5JaXatSc5R0woNlQ8mP3H53fDHPsF+kIazhPqShshIA6ZLxpCWBNHb40fiYziOxgP0E6E3G9zsyP1F4ouVC/V9b/4BHUAmrm9veyelGZX8BMFfu3yKA/R9LCmShKioB9hqavzF51+qcqXgeiXoH9PJPUBJ7/Yp05t/wCr6gJzCYPbTn4fFFmuTmvAdxKXK19qNAFvbD+1qdakhPrSjpdeHMrT5akKHO3A93QMsvtWbVKRLFVoB2nEP7dP7bwtHREs/mNCIlu+Z1KS3fHoz8WlVT7t5/3AcSnXJnQSTGxcxD8uSGLVHpsNyDreL6+keYK5n+13XjF2rcU+t22rW/jDhDF036prUZNL88eSxotfTQj6uOcHNB1mk8KmBT5sRyZxop9F+oLq8dPlF0ch9/HSfhhPsqyHBGNFZZorTjE+wCcqf7dZ4Uh/3ANPDBNbyrIOcYxI1929s3GvHCNVF9SocTyiEN1GNAqI79qdCveVzcoDOwo/WM9HYmSsbSuwkJT9om5ZNxQDm9Mh5gNa7wlZhWO4B5nq233XNfdQiodmBAOngskhIkhqsoWtzkn/phRcOI4De5JobWms/CrS6yaVDODRdlNoZK4eYWW6MlLwmFdNP4wFKcfRyy0TgQIA0/gYDB2ticlLBh6F25yYfvVt4QuHRTpou1tqPbddgrtEPvcDQq3BS4pKW0+gVnSq9+rL6QA2civM23QM8RiQV3wcltXF+ufYsxkNtG+hoZAOhawTV3Mw1dS3IBNxtmkZP6hVRvEpsGO0Bavq7BBNN+7xsCZ6xw1ClJEh1ONWcILn4PrhO1wQl5QE3vo7Ya11RMsZwLInWAHvflNyAkfJ7rW+CzSXTPEln15RJkZzEA+xNkhJbpeSHh6Ui8eHR+BIZXmYZCIgIsOTJa2n+aPlgiyZcqNT2kJ0jyR/sSJFcitzoq3WleLSqp1kD9JwgrXphHu12Ow9wHuYuTwuL9dieVvNX63rK1sjynCAatE63rMgDPF3z52/ZHKfFIdRihyn0QljrKUtygYDuUG5ux4D1wnQNcpwABb3ccx2Qq9N7+q9ds8udImN5cGqK5DQ4adYALfUXDDUv0hkBJ8DOgM9dnGRjA2ygb8XQA1N5yJC0PQkuKZLTeICaNUCJXl5muQg4AS6370w0174JQj3EFPGZKCdsJLRMkPJkNR6gUIVFF4sdbV96/t+SwHACXFJvNdA1d3AAiuS7uvykaKqadhpda1bIM0x5nu4BHiMei89Lxful4gJr+7NnfXMC1ExFWhi6ZPkjdE8lRYL+ya3x8T60PAmmxfiANt0DbIXsfNsVJ0WqNaHVuf5SvZYsX7OQL8UjVg5PhImdBqMlPpRjueZXayPW95wgVkgut50YLzTxAPFGtjhUQQs5XQ9ao3wpXrHTY0qJTypXWw6PJst5x3jdc4JoEV5P+ZCDYR4IzQ81AHh7ejZrly8dzugBYnkewMzzaUjbtS6HOSOg3VxuEMxz4jlBrHsh3N6c3u0ttVhFgDjAQBiGQfRMajJK/ii5sU4NJZaCstIzASn5zZX46PSgjVEWAAAGkUlEQVRVs6niOUFKqWBMPQ1/tEiots09VSksNKEQ/A5ewn5w7jPLtf6Mkj9KbgzPWGInDf540rVFbhCNXG1Zi5wgXKZmF9izwml7TFdewx8tEppt8UaIqc1vkFBk/H7dqDypkhSyWAKUXvKR9FHfnnKp1x16NUurSw/is9gR1pwYDBiFcoLw8eW7wNI7rk85TVIk64Rih6RIvRMOpaAdrUuL5CuaodTL/pp8INyeENlZ7AhrX0PkOUFCerkHqBmNbctqkiK10OSQFGl0wiNq3GhdWiRf0XReD/th6aM2KRK1KUR2Fh6gBrdQ2VCCJvcAa1G1q69JimQn9XlLhzCY3gmHUsaM1qVF8hVN52nsz4WHxOTS0641umnKWniAGnmxslwPjQdoId/biCOgXeIoxTIWEjcRYOlNhMqEEhqFFI3JWbv80k6FerUhRhbTYM0ubY2tVnXdA7RCcjnt4H3C75cpDKbmJsLAY/ybait2be3yewyj2LmCsWmwdPqaKoev2d24+96RibjxVnLKds35iK9cuzXp8ejBx+LX4eguMG4ccXt69J/LaINAlQdIB2MtiZWYdyryS2zX1on1T8wDlE5feTkgPfyGdKRRB0+ePj1HjLmoBOk4y3ml0mkwKIg5Qa6//dYGvvTDbdD2i5c/RqB2NqjFcyLA0vdnpYMxp9Sa5ffu8Fxf4PUcgfB2YqRHCYKSG3h/Vy5fnpqB3+m1HAlCnRxuEgKXHIsP5BciPrQfbZDgilhYkGZJG3OXX+PdS/APlZmmwChYExRdKjBUb4ThVI+R8uea80NCIDffefuoO0Pjh5Lc3Ts3z3X/R/fODr9Jp8S1/YVT4dwYluqTa4eTpYY0Y22XtIF1Suqee+D99PCS2g7lcvKtHCqNTtVrgBphsbIjDKe6jJRfezNb4J9rA7xBSgaxaXMoZo8SHJeD17RE07q/QvqA92RBHDms13x9xL2gehd4zZ3TyvbWN3ON3kh8V146bgU3N9Djo1PWkJeHtbmHCEQDdbXBzlqbpBs6nPiQ9Jz8tIiXlR9xLzgBlvXVSdeKEV/IaL5eFyI5Xg8JBepqvT8t8BLyi+mQm7LFdBlNmGuXrxkjToAatBqVHeH6h0zhxMdvJP7v3GZF7EYEYqF1U2vPtd5h6E0QtL0V+WqnytaEtTT5jW4rUbNOgCKY2hYa4fqjRTCdRU/s3FSXLXTTDQ2OSIhMbr59/RxwoTVBIDkkQWsyAAX4hk4r4isdJVrCKpUTqzdavrU9mvacADVonWBZIB+tlxXy/LRtAJSxNbcQzDzgXtMVGNIzkvhaELsGg7XLj2HlBKgZRV42iECMWFJTW1oHy6U8kZJwoRTx9SCE0Zsoa5cvuV2bE2DNk1tiQK7M2uUDPqk1xprYTyAxnL6G2omtESL50alvrB+hXfQuJUsFUF7i8WmnfSWEWbqJEsJi7fJz93np9SYEyEmHJyqSDORSg+gNHyK/HhsOveyX2JIrk9vIyPVDKBQG6+SmnBLyhZjDs91X88nJ1bSFZbWEWSIjVWct8lP3jjWm0F4TAuQnL4QSFbUwBttci3zJgyRXJhW3p+mjkjVA2BDJyt+tUbb6iOS3Er5r1+WfnVsH5ksd9N8tHKnDeYDRxD+7KUXvz2hdgslXOuLQw36J99W7313e+hCYkiKxe4s/tENHWeUe7FIkD0mR5pT4Z7QuLZKvSDsEyvWwv3bqq7EnVXY0Ebv8/g4OHQ+apEhWY462c2H3j2ctGvY2HQFHwBGYOwJN1gDnbvQp6Pfs2fFz68IFeJbtnmbsd/gNr4Wu02sUF2yHX6e/h3Tg9ULlua7w75DeqHvKphgOvI9z9hx5BRF9cnqewrhamw0Xv91Z/EnE6qVcW1un0Zs5RnzwO34RH0m9GHHkyDNGpNK+4bryfyMZ0t9L7InpE8IrJFOip9RmLzcegWkT5M3dN0Z2S7k2Hsp+GoTIoaV0IJqYhxaTqy1voX9vXCx09jbGInDYBXYiHNsRpdJTUztOXNRbjNXjelDPTuvlWZNgzp4aeTGSLyH/0r70ev0ROFoD/Gon/xcRHZZyrT+E4ySGSCy0Zgfl6PoVJ8IcseWuhxBIrZeVIhbSg69voq1aGTEbS2zXyvby4xCYCHAp5JbScxyEYyRLPbgx2u2ltiBBas8SMBiJv8vOI+BhMHmMZleidMcUDLHaNQ2RW8zLRDIMyafX6HXu2fFOSG3+hDostpOc+z3mATr5zu62KFLo/wGVL83GdPyKXAAAAABJRU5ErkJggg==;" vertex="1" parent="1">
          <mxGeometry x="490" y="210" width="320" height="200" as="geometry" />
        </mxCell>
        <mxCell id="qFiI2E-4twq_T6ByQUi9-7" style="edgeStyle=orthogonalEdgeStyle;rounded=0;orthogonalLoop=1;jettySize=auto;html=1;entryX=-0.003;entryY=0.979;entryDx=0;entryDy=0;entryPerimeter=0;" edge="1" parent="1" source="qFiI2E-4twq_T6ByQUi9-1" target="qFiI2E-4twq_T6ByQUi9-6">
          <mxGeometry relative="1" as="geometry">
            <Array as="points">
              <mxPoint x="480" y="345" />
              <mxPoint x="480" y="406" />
            </Array>
          </mxGeometry>
        </mxCell>
        <mxCell id="qFiI2E-4twq_T6ByQUi9-12" value="Valid values: 01h (1) to 0Eh (14).&lt;br&gt;0x0f will load the DRM potion selection screen.&lt;br&gt;0x10 and up will crash the game with &quot;integer divide by 0&quot;." style="rounded=0;whiteSpace=wrap;html=1;fillColor=#fff2cc;strokeColor=#d6b656;spacing=5;" vertex="1" parent="1">
          <mxGeometry x="80" y="440" width="380" height="60" as="geometry" />
        </mxCell>
        <mxCell id="qFiI2E-4twq_T6ByQUi9-13" value="&lt;i style=&quot;border-color: var(--border-color);&quot;&gt;PRINCE.SAV&lt;/i&gt;&lt;br style=&quot;border-color: var(--border-color);&quot;&gt;8 bytes" style="shape=note;whiteSpace=wrap;html=1;backgroundOutline=1;darkOpacity=0.05;" vertex="1" parent="1">
          <mxGeometry x="159.5" y="230" width="100.5" height="140" as="geometry" />
        </mxCell>
        <mxCell id="qFiI2E-4twq_T6ByQUi9-18" value="No. Health Bars: Values above 2Eh will overflow past the edge of the screen, but will still act as avaialble health. A value of 00h will kill the player immediately after the level loads." style="rounded=0;whiteSpace=wrap;html=1;fillColor=#fff2cc;strokeColor=#d6b656;spacing=5;" vertex="1" parent="1">
          <mxGeometry x="470" y="440" width="350" height="60" as="geometry" />
        </mxCell>
      </root>
    </mxGraphModel>
  </diagram>
</mxfile>
